<svg width="25" height="23" viewBox="0 0 25 23" fill="none" xmlns="http://www.w3.org/2000/svg">
<rect x="0.211407" y="0.711407" width="24.2413" height="16.6307" rx="1.19797" fill="#FFE8E8" stroke="black" stroke-width="0.422813"/>
<line x1="8.31533" y1="22.2749" x2="16.072" y2="22.2749" stroke="black" stroke-width="0.422813"/>
<line x1="14.1643" y1="22.1491" x2="14.1643" y2="17.2716" stroke="black" stroke-width="0.422813"/>
<line x1="10.3589" y1="22.431" x2="10.3589" y2="17.5535" stroke="black" stroke-width="0.422813"/>
<rect x="10.5703" y="17.4125" width="3.80532" height="4.79189" fill="#252531"/>
<path d="M12.3108 10.431C12.3897 10.4836 12.4292 10.5593 12.4292 10.6579C12.4292 10.8289 12.3535 10.9967 12.2023 11.1611C12.0576 11.3255 11.8701 11.4603 11.6399 11.5656C11.4163 11.6642 11.196 11.7136 10.9789 11.7136C10.6369 11.7136 10.3738 11.5886 10.1897 11.3387C10.0121 11.0822 9.90028 10.8618 9.85424 10.6777C9.81478 10.4869 9.75887 10.1482 9.68653 9.66151C9.66679 9.52339 9.63062 9.4346 9.578 9.39514C9.52539 9.3491 9.42344 9.32608 9.27217 9.32608L7.60487 9.33595C7.06555 10.2107 6.57885 10.8355 6.14476 11.2104C5.71067 11.5787 5.25027 11.7629 4.76357 11.7629C4.46102 11.7629 4.23082 11.7037 4.07297 11.5853C3.91512 11.4669 3.8362 11.3124 3.8362 11.1216C3.8362 10.9704 3.88552 10.8355 3.98418 10.7171C4.08284 10.5987 4.22096 10.5165 4.39854 10.4705C4.39854 10.7336 4.43471 10.9112 4.50706 11.0032C4.58599 11.0887 4.71095 11.1315 4.88196 11.1315C5.21081 11.1315 5.5298 11.0032 5.83892 10.7467C6.15462 10.4836 6.54925 10.0101 7.0228 9.32608C6.87153 9.31293 6.76301 9.28662 6.69723 9.24716C6.63804 9.20769 6.60844 9.1485 6.60844 9.06957C6.60844 9.01038 6.62489 8.93145 6.65777 8.8328C6.69066 8.72756 6.72354 8.66179 6.75643 8.63549C6.86166 8.67495 7.07542 8.7177 7.39769 8.76374C7.76601 8.20469 8.16722 7.57 8.6013 6.85967C9.03539 6.14934 9.29848 5.71854 9.39056 5.56727C9.51552 5.36338 9.6931 5.0707 9.9233 4.68923C10.0022 4.57084 10.0713 4.48534 10.1305 4.43272C10.1962 4.3801 10.2785 4.35379 10.3771 4.35379C10.4626 4.35379 10.5646 4.37024 10.683 4.40312C10.6106 4.52151 10.5547 4.69252 10.5152 4.91614C10.4824 5.13976 10.4626 5.37982 10.456 5.63633L10.4462 6.04082C10.4462 6.38283 10.4528 6.78403 10.4659 7.24443C10.4856 7.69825 10.5054 8.06985 10.5251 8.35925C10.5646 8.93803 10.6106 9.40501 10.6632 9.76017C10.7158 10.1088 10.8046 10.4014 10.9296 10.6382C11.0611 10.8684 11.242 10.9835 11.4722 10.9835C11.6235 10.9835 11.7715 10.9342 11.9162 10.8355C12.0609 10.7303 12.1924 10.5955 12.3108 10.431ZM8.92687 8.8624C9.11103 8.8624 9.34123 8.85582 9.61747 8.84266L9.6076 7.29376C9.6076 6.74128 9.63062 6.28417 9.67666 5.92243C9.07157 6.88927 8.70654 7.4812 8.58157 7.69825L7.92057 8.81307C8.29547 8.84595 8.6309 8.8624 8.92687 8.8624Z" fill="black"/>
<path d="M15.3675 14.7423C15.111 14.7423 14.7328 14.716 14.2329 14.6634C13.8515 14.6239 13.5555 14.5976 13.345 14.5845C13.2595 14.5779 13.1937 14.568 13.1477 14.5549C13.1082 14.5351 13.0392 14.4957 12.9405 14.4365C13.0063 14.3444 13.0523 14.2721 13.0786 14.2194C13.1115 14.1602 13.1411 14.0813 13.1674 13.9827C13.2398 13.6999 13.4305 12.7264 13.7396 11.0624C14.0488 9.39185 14.2033 8.49408 14.2033 8.36911C14.2033 8.33623 14.1902 8.30992 14.1639 8.29019C14.1441 8.26388 14.1112 8.25072 14.0652 8.25072C14.0323 8.25072 13.8712 8.27703 13.5818 8.32965C13.128 8.41515 12.8254 8.4579 12.6742 8.4579C12.4374 8.4579 12.319 8.3724 12.319 8.2014C12.319 8.12905 12.3354 8.04026 12.3683 7.93502C12.4078 7.82321 12.444 7.73771 12.4768 7.67852C12.5689 7.7114 12.6643 7.73442 12.7629 7.74758C12.8682 7.76073 13.0293 7.76731 13.2464 7.76731C13.6804 7.76731 14.2132 7.74429 14.8446 7.69825C15.5155 7.65879 15.9791 7.63905 16.2357 7.63905C17.3866 7.63905 18.2515 7.88241 18.8303 8.36911C19.4157 8.84924 19.7084 9.56286 19.7084 10.51C19.7084 11.2071 19.5538 11.8813 19.2447 12.5324C18.9356 13.177 18.4554 13.7064 17.8043 14.1208C17.1532 14.5351 16.3409 14.7423 15.3675 14.7423ZM15.5747 14.2194C16.2192 14.2194 16.7783 14.0451 17.2518 13.6966C17.7319 13.3414 18.097 12.8777 18.3469 12.3055C18.6034 11.7267 18.7317 11.1085 18.7317 10.4508C18.7317 9.64178 18.5179 9.04984 18.0904 8.67495C17.6629 8.29348 16.9822 8.10274 16.0482 8.10274C15.7983 8.10274 15.6174 8.11589 15.5056 8.1422C15.3938 8.16851 15.3181 8.20797 15.2787 8.26059C15.2458 8.31321 15.2162 8.39542 15.1899 8.50723C15.0715 9.09259 14.7722 10.6349 14.2921 13.1342C14.279 13.1868 14.2559 13.2888 14.2231 13.4401C14.1968 13.5913 14.1836 13.7031 14.1836 13.7755C14.1836 13.8281 14.1968 13.8709 14.2231 13.9037C14.2494 13.93 14.2954 13.9596 14.3612 13.9925C14.5059 14.0583 14.6867 14.1142 14.9038 14.1602C15.1274 14.1997 15.351 14.2194 15.5747 14.2194Z" fill="black"/>
</svg>
