<svg width="382" height="400" viewBox="0 0 382 400" fill="none" xmlns="http://www.w3.org/2000/svg">
<path opacity="0.1" d="M191 400C296.486 400 382 388.219 382 373.685C382 359.152 296.486 347.371 191 347.371C85.5136 347.371 0 359.152 0 373.685C0 388.219 85.5136 400 191 400Z" fill="#B7B7B7"/>
<path d="M253.294 216.506L253.229 218.648L249.128 350.272H242.228L245.613 218.648L245.678 216.177L253.294 216.506Z" fill="#EE535E"/>
<path opacity="0.1" d="M253.294 216.506L253.229 218.648L249.128 350.272H242.228L245.613 218.648L245.678 216.177L253.294 216.506Z" fill="#EE535E"/>
<path d="M293.223 328.007L288.06 327.993L211.298 327.846L207.213 327.839L209.384 321.736H292.676L293.223 328.007Z" fill="#EE535E"/>
<path opacity="0.1" d="M253.294 216.506L253.23 218.648H245.614L245.679 216.177L253.294 216.506Z" fill="black"/>
<path d="M256.205 213.289H243.41V217.661H256.205V213.289Z" fill="#504F60"/>
<path opacity="0.1" d="M211.982 321.736L211.298 327.846L207.213 327.839L209.384 321.736H211.982Z" fill="black"/>
<path d="M223 213.209L222.783 215.102L205.758 367.75L197.957 367.421L215.899 215.102L216.1 213.37L223 213.209Z" fill="#EE535E"/>
<path opacity="0.1" d="M293.224 328.007L288.061 327.993L287.361 321.736H292.677L293.224 328.007Z" fill="black"/>
<path d="M301.393 367.421L293.584 367.75L276.559 215.102L276.35 213.209L283.242 213.37L283.443 215.102L301.393 367.421Z" fill="#EE535E"/>
<path d="M334.6 62.696H162.571V212.624H334.6V62.696Z" fill="white"/>
<g filter="url(#filter0_d)">
<path d="M369.213 62.696H128.159C126.325 62.696 124.838 64.0476 124.838 65.7149V209.606C124.838 211.273 126.325 212.624 128.159 212.624H369.213C371.048 212.624 372.535 211.273 372.535 209.606V65.7149C372.535 64.0476 371.048 62.696 369.213 62.696Z" fill="white"/>
</g>
<path d="M251.935 12.559V48.7637H245.228V12.559C245.228 11.7506 245.581 10.9753 246.21 10.4036C246.839 9.83201 247.692 9.51086 248.581 9.51086C249.471 9.51086 250.324 9.83201 250.952 10.4036C251.581 10.9753 251.935 11.7506 251.935 12.559V12.559Z" fill="#EE535E"/>
<path opacity="0.1" d="M251.943 45.4672H245.228V48.7638H251.943V45.4672Z" fill="black"/>
<path d="M254.573 47.9377V59.8963H242.599V47.9377C242.599 47.55 242.768 47.1781 243.07 46.9039C243.371 46.6298 243.78 46.4758 244.207 46.4758H252.917C253.132 46.4699 253.346 46.5033 253.547 46.5742C253.748 46.645 253.931 46.7518 254.085 46.8881C254.24 47.0244 254.363 47.1876 254.446 47.3679C254.53 47.5482 254.573 47.742 254.573 47.9377V47.9377Z" fill="#504F60"/>
<path opacity="0.1" d="M248.581 56.3511C249.985 56.3511 251.123 55.317 251.123 54.0413C251.123 52.7656 249.985 51.7314 248.581 51.7314C247.178 51.7314 246.04 52.7656 246.04 54.0413C246.04 55.317 247.178 56.3511 248.581 56.3511Z" fill="black"/>
<path d="M248.581 55.8543C249.985 55.8543 251.123 54.8202 251.123 53.5445C251.123 52.2688 249.985 51.2346 248.581 51.2346C247.178 51.2346 246.04 52.2688 246.04 53.5445C246.04 54.8202 247.178 55.8543 248.581 55.8543Z" fill="#3F3D56"/>
<path opacity="0.1" d="M254.573 58.4126H242.599V59.8965H254.573V58.4126Z" fill="black"/>
<path opacity="0.1" d="M259.469 60.3936H237.691V63.6902H259.469V60.3936Z" fill="black"/>
<path d="M259.469 59.3993H237.691V62.696H259.469V59.3993Z" fill="#504F60"/>
<path opacity="0.1" d="M205.395 208.721H295.129C296.409 208.721 297.636 209.183 298.541 210.006C299.446 210.828 299.954 211.944 299.954 213.107V213.107H200.586C200.586 211.946 201.092 210.833 201.994 210.011C202.895 209.189 204.118 208.725 205.395 208.721V208.721Z" fill="black"/>
<path opacity="0.1" d="M216.099 213.37L223 213.209L222.782 215.102H215.898L216.099 213.37Z" fill="black"/>
<path opacity="0.1" d="M256.205 213.289H243.41V215.102H256.205V213.289Z" fill="black"/>
<path opacity="0.1" d="M283.443 215.102H276.559L276.35 213.209L283.242 213.37L283.443 215.102Z" fill="black"/>
<path d="M205.395 209.744H295.129C296.409 209.744 297.636 210.206 298.541 211.029C299.446 211.851 299.954 212.967 299.954 214.13V214.13H200.586C200.586 212.967 201.094 211.851 201.999 211.029C202.904 210.206 204.131 209.744 205.411 209.744H205.395Z" fill="#504F60"/>
<path d="M328.592 80.305C328.774 80.2792 328.96 80.2919 329.136 80.3422C329.312 80.3926 329.473 80.4791 329.606 80.5951C329.739 80.7111 329.841 80.8534 329.903 81.011C329.966 81.1686 329.988 81.3372 329.967 81.5038C328.801 91.7373 329.549 102.219 330.812 112.431C331.399 117.102 332.195 122.043 334.471 125.508C334.616 125.718 334.679 125.966 334.65 126.213C334.621 126.46 334.501 126.69 334.31 126.867C333.674 127.317 332.877 127.533 332.074 127.474L296.182 127.657C296 127.658 295.82 127.622 295.656 127.55C295.492 127.479 295.347 127.374 295.234 127.245C295.121 127.115 295.042 126.964 295.003 126.802C294.963 126.64 294.965 126.473 295.008 126.312C297.895 115.128 297.276 102.921 296.118 91.3206C295.547 85.6118 295.217 82.549 299.906 82.147C304.731 81.7523 309.556 81.5695 314.382 81.2041C315.54 81.1163 324.82 80.8678 328.592 80.305Z" fill="white" stroke="#33313F" stroke-width="3" stroke-miterlimit="10"/>
<path d="M301.129 147.327C300.946 147.301 300.76 147.314 300.584 147.364C300.408 147.415 300.248 147.501 300.115 147.617C299.982 147.733 299.88 147.875 299.817 148.033C299.754 148.191 299.733 148.359 299.753 148.526C300.919 158.759 300.172 169.241 298.901 179.453C298.322 184.124 297.526 189.065 295.25 192.537C295.104 192.746 295.04 192.993 295.069 193.239C295.099 193.485 295.219 193.714 295.411 193.89C296.046 194.339 296.844 194.556 297.646 194.496L333.538 194.686C333.72 194.685 333.9 194.647 334.063 194.574C334.226 194.501 334.37 194.396 334.482 194.266C334.595 194.137 334.674 193.985 334.714 193.824C334.754 193.663 334.753 193.495 334.712 193.334C331.825 182.15 332.445 169.943 333.603 158.343C334.174 152.634 334.503 149.571 329.815 149.169C325.126 148.767 320.164 148.592 315.339 148.226C314.181 148.138 304.9 147.89 301.129 147.327Z" fill="white" stroke="#33313F" stroke-width="3" stroke-miterlimit="10"/>
<path d="M311.67 166.157C315.841 165.98 320.019 166.026 324.184 166.296C324.454 166.319 324.707 166.427 324.9 166.6C325.093 166.773 325.215 167.001 325.245 167.246L325.64 170.236C325.659 170.302 325.661 170.373 325.644 170.44C325.627 170.508 325.593 170.571 325.543 170.623C325.455 170.681 325.346 170.707 325.237 170.696C323.484 170.74 321.731 170.557 319.986 170.696C318.9 170.777 317.823 170.967 316.769 171.076C314.988 171.219 313.198 171.248 311.413 171.164C308.897 171.203 306.388 170.923 303.958 170.331C303.958 170.331 304.103 167.853 304.103 167.619C304.103 166.464 304.063 166.361 305.373 166.332L311.67 166.157Z" stroke="#33313F" stroke-width="2" stroke-miterlimit="10" stroke-linecap="round"/>
<path d="M311.67 179.636C315.841 179.814 320.02 179.765 324.184 179.49C324.454 179.466 324.707 179.359 324.9 179.186C325.093 179.013 325.215 178.785 325.245 178.539L325.64 175.557C325.659 175.489 325.661 175.418 325.644 175.349C325.628 175.28 325.593 175.216 325.543 175.162C325.455 175.105 325.346 175.079 325.237 175.089C323.484 175.045 321.731 175.236 319.986 175.089C318.9 175.016 317.823 174.826 316.769 174.717C314.988 174.57 313.198 174.541 311.413 174.629C308.897 174.589 306.388 174.87 303.958 175.462C303.958 175.462 304.103 177.933 304.103 178.174C304.103 179.329 304.063 179.424 305.373 179.46L311.67 179.636Z" stroke="#33313F" stroke-width="2" stroke-miterlimit="10" stroke-linecap="round"/>
<path d="M311.67 184.913C315.841 184.735 320.02 184.784 324.184 185.06C324.454 185.083 324.707 185.191 324.9 185.364C325.093 185.537 325.215 185.765 325.245 186.01L325.64 188.992C325.659 189.06 325.661 189.132 325.644 189.2C325.628 189.269 325.593 189.333 325.543 189.387C325.455 189.445 325.346 189.471 325.237 189.46C323.484 189.504 321.731 189.314 319.986 189.46C318.9 189.533 317.823 189.73 316.769 189.84C314.988 189.98 313.198 190.007 311.413 189.921C308.898 189.962 306.389 189.684 303.958 189.095C303.958 189.095 304.103 186.617 304.103 186.375C304.103 185.22 304.063 185.125 305.373 185.096L311.67 184.913Z" stroke="#33313F" stroke-width="2" stroke-miterlimit="10" stroke-linecap="round"/>
<path d="M316.956 122.35C317.323 123.153 317.446 124.032 317.309 124.894C317.311 124.963 317.291 125.031 317.253 125.091C317.209 125.13 317.156 125.16 317.097 125.179C317.039 125.198 316.977 125.205 316.915 125.201L309.275 125.471C309.275 125.471 309.702 123.424 309.758 123.278C310.023 122.445 310.691 122.664 311.551 122.62L316.956 122.35Z" fill="white" stroke="#33313F" stroke-width="2" stroke-miterlimit="10" stroke-linecap="round"/>
<path d="M328.496 122.35C328.861 123.154 328.981 124.033 328.842 124.894C328.846 124.962 328.829 125.031 328.793 125.091C328.748 125.129 328.695 125.159 328.637 125.178C328.579 125.197 328.517 125.204 328.456 125.201L320.808 125.471C320.808 125.471 321.242 123.424 321.298 123.278C321.556 122.445 322.223 122.664 323.092 122.62L328.496 122.35Z" fill="white" stroke="#33313F" stroke-width="2" stroke-miterlimit="10" stroke-linecap="round"/>
<path d="M323.887 87.4539L324.917 95.4946C324.951 95.7851 324.921 96.0789 324.829 96.3587C324.737 96.6386 324.584 96.8988 324.379 97.1242C324.175 97.3496 323.923 97.5356 323.638 97.6712C323.353 97.8069 323.042 97.8894 322.721 97.9141C316.194 98.3831 309.635 98.344 303.115 97.7971C302.535 97.7464 301.995 97.5068 301.594 97.1226C301.194 96.7384 300.96 96.2354 300.935 95.7065C300.813 94.2732 300.582 92.8493 300.244 91.445C299.978 89.9831 299.689 88.5723 301.587 88.141C303.485 87.7098 306.082 88.0168 308.157 87.9802C310.645 87.9364 313.124 87.873 315.596 87.7902C316.288 87.7902 323.887 87.4174 323.887 87.4539Z" stroke="#33313F" stroke-width="3" stroke-miterlimit="10"/>
<path d="M323.888 116.503L324.901 108.462C324.935 108.171 324.906 107.878 324.813 107.598C324.721 107.318 324.568 107.058 324.364 106.832C324.159 106.607 323.907 106.421 323.622 106.285C323.338 106.15 323.026 106.067 322.706 106.042C316.178 105.575 309.619 105.611 303.099 106.152C302.518 106.203 301.977 106.444 301.576 106.829C301.176 107.215 300.942 107.72 300.92 108.25C300.797 109.683 300.566 111.107 300.228 112.512C299.963 113.973 299.673 115.384 301.571 115.815C303.469 116.247 306.067 115.94 308.141 115.976C310.626 116.02 313.103 116.079 315.58 116.166C316.288 116.188 323.888 116.561 323.888 116.503Z" stroke="#33313F" stroke-width="3" stroke-miterlimit="10"/>
<path d="M313.554 152.736C313.286 155.412 313.117 158.092 313.047 160.777C310.096 160.754 307.155 160.448 304.273 159.863C304.047 159.854 303.825 159.799 303.624 159.702C303.423 159.606 303.247 159.471 303.11 159.307C302.973 159.142 302.877 158.952 302.829 158.75C302.781 158.548 302.783 158.339 302.834 158.138C302.778 156.472 301.813 152.751 304.394 152.517C305.166 152.444 313.546 152.868 313.554 152.736Z" stroke="#33313F" stroke-width="2" stroke-miterlimit="10" stroke-linecap="round"/>
<path d="M171.554 116.217C171.932 116.18 172.315 116.22 172.674 116.333C173.033 116.447 173.36 116.632 173.631 116.875C173.902 117.118 174.11 117.412 174.241 117.737C174.371 118.062 174.42 118.409 174.384 118.754C173.46 128.483 174.191 138.446 175.398 148.146C175.937 152.459 176.652 156.998 178.55 160.397C178.716 160.688 178.796 161.013 178.783 161.341C178.77 161.669 178.665 161.988 178.478 162.268C178.291 162.548 178.028 162.78 177.714 162.942C177.4 163.103 177.045 163.188 176.685 163.189V163.189L141.074 163.379C140.861 163.381 140.651 163.338 140.459 163.256C140.267 163.173 140.098 163.052 139.964 162.902C139.83 162.751 139.736 162.576 139.687 162.387C139.638 162.199 139.637 162.004 139.683 161.815C142.506 150.69 141.886 138.541 140.736 127.036C140.157 121.327 139.836 118.264 144.516 117.862C149.341 117.475 154.167 117.292 158.952 116.919C159.973 116.846 167.275 116.641 171.554 116.217Z" fill="white" stroke="#33313F" stroke-width="3" stroke-miterlimit="10" stroke-linecap="round"/>
<path d="M221.093 116.035C220.898 116.007 220.699 116.022 220.511 116.076C220.323 116.13 220.152 116.223 220.01 116.348C219.868 116.472 219.76 116.625 219.694 116.794C219.628 116.963 219.606 117.143 219.629 117.321C220.779 127.503 220.031 137.971 218.769 148.146C218.19 152.817 217.394 157.736 215.126 161.208C214.967 161.454 214.913 161.744 214.976 162.024C215.038 162.303 215.212 162.551 215.464 162.721C216.072 163.072 216.788 163.236 217.506 163.189L253.302 163.379C253.498 163.379 253.692 163.339 253.868 163.26C254.045 163.181 254.199 163.067 254.319 162.926C254.44 162.785 254.523 162.621 254.562 162.446C254.602 162.271 254.597 162.09 254.548 161.917C251.693 150.755 252.304 138.563 253.462 127.014C254.033 121.305 254.363 118.242 249.683 117.84C244.857 117.453 240.032 117.27 235.207 116.897C234.025 116.831 224.937 116.59 221.093 116.035Z" fill="white" stroke="#33313F" stroke-width="3" stroke-miterlimit="10"/>
<path d="M150.233 122.679L168.441 144.754" stroke="#33313F" stroke-width="2" stroke-miterlimit="10" stroke-linecap="round"/>
<path d="M168.441 121.027L150.837 145.858" stroke="#33313F" stroke-width="2" stroke-miterlimit="10" stroke-linecap="round"/>
<path d="M231.483 123.717L241.399 135.741" stroke="#33313F" stroke-width="2" stroke-miterlimit="10" stroke-linecap="round"/>
<path d="M241.4 122.811L231.813 136.341" stroke="#33313F" stroke-width="2" stroke-miterlimit="10" stroke-linecap="round"/>
<path d="M156.249 151.808C160.422 151.631 164.603 151.678 168.771 151.947C169.04 151.973 169.291 152.081 169.484 152.254C169.677 152.427 169.799 152.653 169.832 152.897L170.218 155.887C170.237 155.955 170.239 156.025 170.224 156.094C170.209 156.162 170.177 156.226 170.13 156.282C170.038 156.332 169.932 156.357 169.824 156.355C168.071 156.399 166.31 156.209 164.565 156.355C163.479 156.428 162.409 156.618 161.348 156.728C159.567 156.87 157.777 156.899 155.992 156.815C153.479 156.855 150.972 156.575 148.545 155.982C148.497 155.982 148.69 153.511 148.69 153.27C148.69 152.115 148.641 152.02 149.952 151.984L156.249 151.808Z" stroke="#33313F" stroke-width="2" stroke-miterlimit="10" stroke-linecap="round"/>
<path d="M232.746 140.771C236.92 140.593 241.101 140.641 245.268 140.917C245.538 140.94 245.791 141.048 245.984 141.221C246.177 141.394 246.299 141.622 246.33 141.867L246.716 144.849C246.735 144.917 246.737 144.988 246.721 145.056C246.706 145.124 246.674 145.189 246.627 145.244C246.538 145.301 246.43 145.327 246.321 145.317C244.568 145.361 242.807 145.171 241.062 145.317C239.976 145.39 238.907 145.588 237.845 145.69C236.064 145.836 234.274 145.865 232.489 145.778C229.973 145.817 227.464 145.537 225.034 144.944C224.994 144.944 225.179 142.474 225.179 142.232C225.179 141.078 225.139 140.983 226.449 140.946L232.746 140.771Z" stroke="#33313F" stroke-width="2" stroke-miterlimit="10" stroke-linecap="round"/>
<path d="M239.123 149.052C234.953 148.876 230.774 148.922 226.61 149.191C226.34 149.215 226.087 149.322 225.893 149.495C225.7 149.668 225.578 149.896 225.548 150.141L225.178 153.124C225.155 153.191 225.151 153.262 225.166 153.332C225.182 153.401 225.216 153.465 225.267 153.519C225.355 153.576 225.464 153.602 225.572 153.592C227.325 153.635 229.079 153.453 230.832 153.592C231.917 153.665 232.987 153.862 234.049 153.972C235.83 154.111 237.619 154.14 239.405 154.059C241.92 154.1 244.43 153.819 246.86 153.226C246.9 153.226 246.715 150.748 246.715 150.514C246.715 149.352 246.763 149.257 245.452 149.228L239.123 149.052Z" stroke="#33313F" stroke-width="2" stroke-miterlimit="10" stroke-linecap="round"/>
<path d="M187.083 143.643C187.083 143.643 198.913 143.095 201.036 143.643" stroke="#33313F" stroke-width="3" stroke-miterlimit="10"/>
<path d="M201.052 137.854C201.052 137.854 206.207 142.539 206.207 143.643C206.207 144.747 199.532 148.606 199.532 148.606" stroke="#33313F" stroke-width="3" stroke-miterlimit="10"/>
<path d="M264.456 133.644C264.456 133.644 275.176 129.082 277.372 128.863" stroke="#33313F" stroke-width="3" stroke-miterlimit="10"/>
<path d="M274.976 123.505C274.976 123.505 281.691 126.078 282.149 127.094C282.608 128.11 278.032 133.98 278.032 133.98" stroke="#33313F" stroke-width="3" stroke-miterlimit="10"/>
<path d="M264.344 145.324C264.344 145.324 275.241 149.527 276.889 150.872" stroke="#33313F" stroke-width="3" stroke-miterlimit="10"/>
<path d="M279.671 145.661C279.671 145.661 282.084 151.925 281.521 152.919C280.958 153.913 273.133 154.732 273.133 154.732" stroke="#33313F" stroke-width="3" stroke-miterlimit="10"/>
<path d="M306.638 122.35C307.003 123.154 307.122 124.033 306.983 124.894C306.988 124.962 306.971 125.031 306.935 125.091C306.89 125.129 306.837 125.159 306.779 125.178C306.721 125.197 306.659 125.204 306.597 125.201L298.949 125.471C298.949 125.471 299.384 123.424 299.44 123.278C299.697 122.445 300.373 122.664 301.233 122.62L306.638 122.35Z" fill="white" stroke="#33313F" stroke-width="2" stroke-miterlimit="10" stroke-linecap="round"/>
<path d="M162.161 185.345L164.863 183.057L162.45 182.969L161.188 184.731L162.161 185.345Z" fill="#33313F"/>
<path d="M142.722 201.368L145.585 198.027L146.22 197.428L154.986 189.08L157.969 186.244L159.369 186.09L161.379 184.278L162.562 185.221L160.607 187.296L160.639 188.386L157.592 191.39L148.986 199.884L148.432 200.425L144.973 203.334L142.722 201.368Z" fill="#65617D"/>
<path d="M146.222 197.427L154.988 189.08L157.593 191.39L148.988 199.883L146.222 197.427Z" fill="#33313F"/>
<path d="M159.45 200.644C156.902 198.488 154.687 196.03 152.864 193.334C149.003 187.867 142.554 184.913 138.131 183.444V181.668L138.404 181.617L138.283 179.965H138.404L138.09 175.579V175.543L136.498 153.782C136.498 153.782 130.828 139.272 140.905 125.888C150.982 112.504 141.532 99.6683 132.059 94.6466C132.059 94.6466 127.652 73.4486 131.431 68.4268C126.304 65.7445 121.021 63.3165 115.605 61.1537C115.516 60.8906 115.444 60.6274 115.371 60.3496C115.267 58.376 115.13 56.4024 115.01 54.4288C115.136 53.403 115.342 52.3868 115.629 51.388C115.749 50.9714 115.886 50.5547 116.031 50.1234C120.535 48.5593 124.414 45.7961 127.162 42.1952C129.91 38.5944 131.398 34.3236 131.431 29.9415C131.434 27.3849 130.927 24.849 129.936 22.4564C130.444 21.6961 130.831 20.8741 131.086 20.015C131.689 17.7563 131.005 15.3441 129.59 13.0562C127.065 8.10023 120.768 3.4586 116.2 1.74083C109.653 -0.671359 99.8019 -0.101206 92.9822 0.644379C89.1541 1.06103 84.7873 2.22326 83.404 5.41027C82.8974 6.57981 82.8893 7.87362 82.5355 9.06509C81.104 13.9333 74.9196 16.1993 71.0996 19.9273C67.7219 23.2166 66.2743 27.6682 65.1484 32.0028C62.0125 44.4259 61.2643 57.2484 62.9368 69.9034C63.3229 72.8272 63.8376 75.7145 64.3844 78.6092C62.0844 81.533 60.0095 86.701 60.9585 95.6772L53.3989 128.03L50.2545 146.998C50.2545 146.998 48.3646 154.805 55.8839 161.501C60.7092 165.769 66.5397 172.984 70.1345 177.655C68.5693 181.791 67.7941 186.139 67.8425 190.513C67.923 192.501 68.0436 194.423 68.1964 196.251C68.5148 200.133 69.3244 203.969 70.609 207.683C71.4937 215.475 73.2388 225.438 76.6567 231.805L77.9113 265.831C77.9113 265.831 76.0214 297.073 72.2818 303.206C68.5422 309.338 80.4606 361.222 80.4606 361.222V368.474L78.4501 373.839L77.9434 373.495C68.502 384.094 77.9434 387.998 77.9434 387.998C77.9434 387.998 80.5169 388.107 84.6264 388.253C84.2775 389.74 84.4834 391.29 85.2116 392.659C85.9397 394.028 87.1486 395.137 88.6475 395.812C88.6475 395.812 142.152 398.041 151.601 395.812C161.051 393.582 158.525 385.768 153.483 386.309C151.561 386.528 148.722 386.068 145.947 385.417C148.883 382.311 146.535 378.108 142.787 378.502C137.753 379.058 126.421 375.008 126.421 375.008L126.365 375.074C126.003 374.949 125.632 374.846 125.255 374.767C121.046 373.907 116.888 372.85 112.798 371.602C110.385 366.902 104.756 354.271 108.777 344.476C110.594 340.046 111.19 334.155 111.19 328.439C111.285 311.194 114.077 294.05 119.481 277.52L127.032 254.129C127.032 254.129 137.736 225.672 138.364 217.865L138.324 206.506C147.17 211.623 154.207 210.088 158.694 207.698C159.349 207.347 159.903 206.86 160.311 206.278C160.72 205.695 160.971 205.033 161.045 204.345C161.119 203.658 161.013 202.964 160.735 202.321C160.458 201.678 160.018 201.103 159.45 200.644ZM75.4343 141.436C75.6514 140.617 75.8283 139.725 75.9811 138.782C77.4609 138.782 78.9487 138.782 80.4284 138.738C82.269 142.137 83.0426 145.931 82.6641 149.703C79.2543 148.745 74.1556 146.399 75.4343 141.472V141.436Z" fill="url(#paint0_linear)"/>
<path d="M81.4185 365.762L79.0059 372.34L86.8791 379.497L112.927 385.001L131.706 383.349L130.491 377.289C130.13 375.989 129.383 374.804 128.33 373.864C127.278 372.924 125.961 372.265 124.524 371.96C116.804 370.308 102.087 366.551 98.9905 361.325L81.4185 365.762Z" fill="#936C50"/>
<path opacity="0.1" d="M81.4185 365.762L79.0059 372.34L86.8791 379.497L112.927 385.001L131.706 383.349L130.491 377.289C130.13 375.989 129.383 374.804 128.33 373.864C127.278 372.924 125.961 372.265 124.524 371.96C116.804 370.308 102.087 366.551 98.9905 361.325L81.4185 365.762Z" fill="black"/>
<path d="M125.641 381.697L122.006 377.311L125.641 372.194C125.641 372.194 136.538 376.193 141.388 375.644C146.237 375.096 148.625 382.801 139.57 385.001C130.515 387.201 78.9969 385.001 78.9969 385.001C78.9969 385.001 69.9094 381.149 78.9969 370.688L86.8701 376.193C86.8701 376.193 100.196 382.771 106.863 381.697H125.641Z" fill="#2E3037"/>
<path d="M141.992 391.06L123.213 392.712L97.1649 387.201L89.2676 380.045L89.9109 378.298L90.8117 375.842L91.6963 373.437L109.26 369.051C110.152 370.369 111.372 371.479 112.823 372.289C118.525 375.834 128.778 378.4 134.794 379.679C135.043 379.738 135.301 379.804 135.542 379.884C136.815 380.269 137.961 380.94 138.873 381.834C139.785 382.729 140.435 383.818 140.761 385.001L141.992 391.06Z" fill="#936C50"/>
<path opacity="0.1" d="M141.992 391.06L123.213 392.712L97.1649 387.201L89.2676 380.045L89.9109 378.298L97.1488 383.349C97.1488 383.349 110.483 389.927 117.142 388.853H135.912L132.277 384.467L135.542 379.884C136.815 380.269 137.961 380.94 138.873 381.834C139.785 382.728 140.435 383.818 140.761 385.001L141.992 391.06Z" fill="black"/>
<path d="M135.911 389.408L132.276 385.022L135.911 379.906C135.911 379.906 146.816 383.904 151.657 383.356C156.498 382.808 158.895 390.512 149.848 392.72C140.8 394.927 89.2665 392.72 89.2665 392.72C89.2665 392.72 80.1789 388.86 89.2665 378.4L97.1397 383.904C97.1397 383.904 110.473 390.483 117.132 389.416L135.911 389.408Z" fill="#2E3037"/>
<path d="M120.791 70.0714C120.791 70.0714 91.7188 72.8198 95.957 61.8115C97.1449 58.6898 97.4518 55.3471 96.8496 52.0896C96.0967 48.0512 94.3421 44.2216 91.7188 40.8912L118.973 44.7434C117.34 47.2246 116.098 49.9016 115.282 52.6963C112.033 64.3845 120.791 70.0714 120.791 70.0714Z" fill="#DB8B8B"/>
<path d="M71.124 195.6C71.124 195.6 71.7272 219.276 77.7829 230.84L78.9972 264.421C78.9972 264.421 77.1797 295.26 73.5447 301.312C69.9097 307.365 81.4179 358.576 81.4179 358.576V367.384C81.4179 367.384 100.799 373.963 106.252 366.281L100.799 300.764L103.212 209.92L71.124 195.6Z" fill="#35323E"/>
<path opacity="0.1" d="M71.1162 195.6C71.1162 195.6 71.7194 219.276 77.7751 230.84L78.9894 264.421C78.9894 264.421 77.1719 295.26 73.5369 301.312C69.9019 307.365 81.4101 358.576 81.4101 358.576V367.384C81.4101 367.384 100.792 373.963 106.244 366.281L100.792 300.764L103.204 209.92L71.1162 195.6Z" fill="black"/>
<path d="M59.0046 119.624L55.3696 128.432L52.3457 147.152C51.9363 149.76 52.2175 152.419 53.1658 154.908C54.1141 157.397 55.7023 159.645 57.7983 161.464C65.0362 168.043 74.7591 181.836 74.7591 181.836L86.2673 150.456C86.2673 150.456 74.7591 148.804 76.6168 141.648C78.4745 134.491 77.8231 121.276 77.8231 121.276L59.0046 119.624Z" fill="#CCCCCC"/>
<path opacity="0.1" d="M112.846 372.275C105.069 383.393 92.9822 377.092 90.835 375.842L91.7196 373.437L109.284 369.051C110.177 370.364 111.398 371.468 112.846 372.275V372.275Z" fill="black"/>
<path d="M137.15 217.076C136.538 224.78 126.245 252.893 126.245 252.893L119.007 275.999C113.787 292.325 111.086 309.23 110.981 326.231C110.981 331.867 110.41 337.685 108.665 342.057C103.839 354.169 113.49 370.688 113.49 370.688C105.013 384.453 90.4733 375.074 90.4733 375.074V366.303C90.4733 366.303 78.9972 318.381 82.0291 309.024C85.061 299.668 86.2753 274.333 86.2753 274.333V228.64C76.5647 219.848 70.6635 208.171 69.6523 195.746C69.5075 193.941 69.3869 192.048 69.3145 190.081C68.8239 177.655 78.1608 163.094 81.8119 157.919C82.6966 156.662 83.2434 155.96 83.2434 155.96L136.715 175.243L136.836 175.287V177.165V181.332L137.15 217.076Z" fill="#35323E"/>
<path opacity="0.1" d="M118.973 44.7434C117.34 47.2246 116.098 49.9016 115.282 52.6963C112.322 53.7221 109.164 54.197 105.998 54.0928C102.832 53.9886 99.7208 53.3074 96.8496 52.0896C96.0967 48.0512 94.3421 44.2216 91.7188 40.8912L118.973 44.7434Z" fill="black"/>
<path d="M106.864 53.0034C119.913 53.0034 130.492 43.3884 130.492 31.5277C130.492 19.6669 119.913 10.0519 106.864 10.0519C93.8148 10.0519 83.2363 19.6669 83.2363 31.5277C83.2363 43.3884 93.8148 53.0034 106.864 53.0034Z" fill="#936C50"/>
<path opacity="0.1" d="M137.15 181.288L136.885 181.332C111.488 186.076 79.6172 162.02 79.6172 162.02C80.4742 160.71 81.2112 159.338 81.8207 157.919C82.7054 156.662 83.2522 155.96 83.2522 155.96L136.716 175.243L136.853 177.165L137.15 181.288Z" fill="black"/>
<path d="M130.482 69.5232C130.482 69.5232 96.5609 50.8031 85.6558 58.5075L70.5125 76.1238C70.5125 76.1238 60.8217 78.8795 62.6393 96.4958L55.4014 128.432L77.2035 133.388C77.2035 133.388 89.9261 144.396 79.6162 160.368C79.6162 160.368 111.72 184.592 137.165 179.636L135.332 153.782C135.332 153.782 129.879 139.462 139.57 126.253C149.261 113.045 140.173 100.377 131.094 95.4213C131.086 95.3994 126.847 74.4718 130.482 69.5232Z" fill="#CCCCCC"/>
<path d="M132.301 181.836C132.301 181.836 145.024 184.029 151.079 192.852C152.827 195.501 154.962 197.923 157.424 200.052C157.972 200.512 158.394 201.081 158.658 201.714C158.923 202.347 159.023 203.028 158.949 203.702C158.876 204.376 158.632 205.026 158.236 205.6C157.841 206.174 157.304 206.657 156.669 207.011C151.843 209.642 144.026 211.257 134.151 203.86C117.158 191.2 132.301 181.836 132.301 181.836Z" fill="#936C50"/>
<path opacity="0.1" d="M113.521 79.9541C113.521 79.9541 101.41 78.8504 98.3782 107.482C95.3463 136.114 90.505 142.715 90.505 142.715C90.505 142.715 87.4731 157.583 94.7431 166.391C102.013 175.199 115.942 193.985 115.942 193.985C115.942 193.985 131.093 197.844 134.117 184.073L115.339 152.144C115.339 152.144 112.315 141.129 119.577 133.424C126.839 125.72 132.3 74.4719 113.521 79.9541Z" fill="black"/>
<path d="M114.736 78.3313C114.736 78.3313 102.617 77.2276 99.593 105.86C96.5692 134.491 91.7198 141.092 91.7198 141.092C91.7198 141.092 88.6879 155.974 95.958 164.746C103.228 173.518 117.157 192.274 117.157 192.274C117.157 192.274 132.3 196.134 135.332 182.37L116.554 150.434C116.554 150.434 113.522 139.418 120.792 131.714C128.062 124.009 133.499 72.8199 114.736 78.3313Z" fill="#CCCCCC"/>
<path opacity="0.1" d="M124.732 98.9591C124.732 98.9591 125.938 116.027 120.486 125.391C115.033 134.754 115.033 146.859 120.486 153.467" fill="black"/>
<path opacity="0.1" d="M127.757 78.0535C127.757 78.0535 122.932 73.6677 108.979 73.0976C95.0257 72.5274 88.9941 68.7118 88.9941 68.7118" fill="black"/>
<path opacity="0.1" d="M94.0928 3.78024C90.4095 4.18958 86.2035 5.3372 84.8766 8.48766C84.386 9.64258 84.378 10.9145 84.0321 12.1425C82.6569 16.9522 76.7058 19.189 73.0305 22.8657C69.8137 26.1112 68.3581 30.5043 67.3046 34.7805C64.28 47.0423 63.5486 59.6795 65.1412 72.1621C66.3234 81.2918 68.7361 90.2754 69.4196 99.449C70.1032 108.623 68.8567 118.271 63.3398 125.976C60.9272 129.294 57.839 132.204 56.1582 135.851C59.6324 138.409 64.4255 138.775 68.8969 138.914C74.1082 139.075 79.3195 139.075 84.5307 138.914C87.2651 138.826 90.12 138.665 92.4764 137.408C94.2216 136.394 95.6572 134.996 96.6502 133.344C99.6258 128.746 100.382 123.22 100.253 117.884C100.124 112.548 99.1996 107.248 99.087 101.912C99.0307 98.9885 99.28 95.9184 101.122 93.5355C102.449 91.8177 104.467 90.6628 106.196 89.2666C112.686 84.0475 114.906 75.6707 115.123 67.7982C115.34 59.9257 113.917 52.0386 114.648 44.1953C114.93 41.1179 116.193 37.4339 119.522 36.8345C120.567 36.6444 121.685 36.8345 122.683 36.469C125.352 35.5407 125.095 32.1198 125.851 29.6199C126.712 26.8057 129.349 24.6347 130.089 21.7985C131.834 15.1394 122.506 7.17922 116.418 4.86937C110.105 2.4718 100.623 3.04927 94.0928 3.78024Z" fill="black"/>
<path d="M93.4569 2.68379C89.7737 3.09313 85.5676 4.24074 84.2407 7.38389C83.8985 8.58771 83.63 9.80786 83.4365 11.0387C82.0613 15.8485 76.1021 18.0852 72.4268 21.7693C69.21 25.0075 67.7544 29.4006 66.7009 33.684C63.69 45.9554 62.9723 58.5997 64.5778 71.0875C65.7599 80.2173 68.1726 89.2082 68.8481 98.3745C69.5236 107.541 68.2932 117.197 62.7763 124.901C60.3637 128.22 57.2755 131.129 55.5947 134.777C59.0689 137.342 63.862 137.7 68.3334 137.839C73.5447 138 78.756 138 83.9673 137.839C86.7016 137.752 89.5565 137.598 91.9129 136.334C93.6593 135.323 95.0931 133.924 96.0787 132.269C99.0623 127.672 99.8102 122.145 99.6896 116.809C99.5689 111.473 98.628 106.174 98.5235 100.838C98.4672 97.914 98.7165 94.8439 100.55 92.4683C101.885 90.7432 103.904 89.5883 105.633 88.1994C112.115 82.973 114.342 74.5962 114.559 66.7237C114.777 58.8512 113.345 50.964 114.077 43.1208C114.366 40.0507 115.629 36.3594 118.95 35.7673C120.004 35.5772 121.122 35.7673 122.119 35.3945C124.789 34.4662 124.532 31.0526 125.288 28.5454C126.14 25.7311 128.778 23.5675 129.526 20.7313C131.271 14.0649 121.942 6.11201 115.854 3.79485C109.493 1.38266 100.019 1.94551 93.4569 2.68379Z" fill="#35323E"/>
<defs>
<filter id="filter0_d" x="120.838" y="62.696" width="255.697" height="157.928" filterUnits="userSpaceOnUse" color-interpolation-filters="sRGB">
<feFlood flood-opacity="0" result="BackgroundImageFix"/>
<feColorMatrix in="SourceAlpha" type="matrix" values="0 0 0 0 0 0 0 0 0 0 0 0 0 0 0 0 0 0 127 0" result="hardAlpha"/>
<feOffset dy="4"/>
<feGaussianBlur stdDeviation="2"/>
<feColorMatrix type="matrix" values="0 0 0 0 0 0 0 0 0 0 0 0 0 0 0 0 0 0 0.25 0"/>
<feBlend mode="normal" in2="BackgroundImageFix" result="effect1_dropShadow"/>
<feBlend mode="normal" in="SourceGraphic" in2="effect1_dropShadow" result="shape"/>
</filter>
<linearGradient id="paint0_linear" x1="105.56" y1="396.835" x2="105.56" y2="0.0303684" gradientUnits="userSpaceOnUse">
<stop stop-color="#808080" stop-opacity="0.25"/>
<stop offset="0.54" stop-color="#808080" stop-opacity="0.12"/>
<stop offset="1" stop-color="#808080" stop-opacity="0.1"/>
</linearGradient>
</defs>
</svg>
